# xmcd
#
# Track frame offsets:
#	150
#	12566
#	23555
#	36431
#	45740
#	62580
#	77320
#	90001
#	107495
#	124558
#	140350
#	152990
#	166197
#	178417
#	190118
#	204287
#	217182
#	230230
#	243956
#	300353
#
# Disc length: 4043 seconds
#
# Revision: 0
# Processed by: cddbd v1.5.1PL2 Copyright (c) Steve Scherf et al.
# Submitted via: audiograbber 1.80
#
DISCID=fd0fc914
DTITLE=Spruce Pine - Spaceman
DYEAR=1900
DGENRE=
TTITLE0=World That's Real
TTITLE1=Thank You Scruggs and Flatt
TTITLE2=The Wall
TTITLE3=Honky Tonky  Mind
TTITLE4=Soldier's Return
TTITLE5=High On Bluegrass
TTITLE6=Still Feeling Blue
TTITLE7=Zion's Hill
TTITLE8=Rebecca
TTITLE9=Wabash Cannonball
TTITLE10=I Can't Quit
TTITLE11=Like A Moth To A Flame
TTITLE12=Same Old Place Tonight
TTITLE13=It'll Be Me
TTITLE14=Norman's Ride
TTITLE15=Little Mountain Road
TTITLE16=Used To Be
TTITLE17=Zlatá Rybka
TTITLE18=Mr.Spaceman
TTITLE19=Datová stopa
EXTD=
EXTT0=
EXTT1=
EXTT2=
EXTT3=
EXTT4=
EXTT5=
EXTT6=
EXTT7=
EXTT8=
EXTT9=
EXTT10=
EXTT11=
EXTT12=
EXTT13=
EXTT14=
EXTT15=
EXTT16=
EXTT17=
EXTT18=
EXTT19=
PLAYORDER=
